<svg xmlns="http://www.w3.org/2000/svg" width="180" height="48" fill="none" viewBox="0 0 180 48">
    <path fill="#4C4C4C" d="M43.404 10.803L35.555.27c-.123-.165-.31-.26-.515-.26H10.12C6.507.036 4.09 2.239 4.09 5.385v6.373H43.333c.322 0 .504-.365.31-.624l-.24-.33zM179.607.012h-16.879v11.74h8.621c.72 0 1.071-.184 1.475-.755L179.853.742l.082-.124c.17-.253-.012-.606-.328-.606zM132.066 15.804V5.378s-.018-1.991-1.592-3.552c-1.007-1.001-2.657-1.82-5.344-1.82H93.227c-.269 0-.497.165-.597.4-.017.042-.029.083-.035.124-.005.041-.011.088-.011.13V11.75H118.552c.041 0 .088.006.123.024.029.011.058.023.082.04.006 0 .006.007.012.007.07.047.122.118.152.206l.017.076v8.972c0 .217-.175.388-.386.388H105.6c-.217 0-.386-.176-.386-.389V14.726c0-.095-.024-.189-.059-.271-.099-.224-.328-.377-.585-.377H92.583v33.274c0 .047.007.088.012.13.006.04.024.082.035.123.065.148.182.271.322.336.082.041.176.059.27.059h11.336c.1 0 .187-.024.269-.059.147-.07.264-.188.322-.336.018-.04.03-.082.035-.123.006-.042.012-.089.012-.13V32.98H125.698c1.241-.018 2.505-.495 3.576-1.26.088-.06.17-.124.252-.19.082-.064.164-.129.246-.2.122-.1.24-.206.351-.318 1.17-1.13 1.955-2.633 1.925-4.152V15.804h.018zM87.416 5.537c-.153-1.797-1.066-3.31-2.417-4.3-.036-.024-.07-.053-.106-.077l-.158-.106c-.012-.006-.023-.017-.04-.023-.124-.077-.252-.153-.381-.224C83.372.289 82.265 0 81.084 0H53.89c-1.545.006-2.955.5-4.055 1.349l-.158.124-.223.188c-.064.059-.129.124-.193.183l-.006.006c-.96.954-1.58 2.232-1.703 3.693-.006.035-.006.076-.006.112v6.102h28.005c.053 0 .106.012.152.03l.036.017c.017.012.035.018.046.035.094.071.153.183.153.313v23.85c0 .105-.041.206-.112.276-.07.071-.17.112-.275.112H59.393c-.064 0-.129-.017-.187-.047-.006 0-.006-.006-.012-.006-.03-.017-.053-.035-.076-.059-.041-.04-.07-.088-.094-.147-.011-.041-.023-.082-.023-.13V14.727c0-.095-.023-.189-.059-.271-.035-.07-.076-.136-.128-.189-.012-.011-.03-.03-.047-.04-.111-.095-.258-.148-.41-.148H47.53v27.301c-.006.466.035.913.123 1.343.005.024.011.047.011.065.018.083.035.17.059.253.006.03.011.053.023.083.018.076.041.153.064.23.012.035.018.064.03.1l.123.353c.076.2.164.395.257.583.024.047.047.089.07.136l.088.159c.024.035.047.076.065.112.123.2.251.394.392.583l.14.177c1.241 1.525 3.155 2.462 5.21 2.432h26.564c3.57.047 6.702-2.821 6.66-6.609V5.661c.007-.048.007-.083.007-.124zM160.416.012h-24.382c-.076 0-.152.011-.222.041l-.088.035c-.199.112-.34.324-.34.572v10.437c0 .36.287.654.65.654H147.4c.047 0 .094.012.14.024.112.04.199.135.235.247l.017.077V47.34c0 .046.006.088.012.129.006.041.023.082.035.123.064.148.181.271.322.336.082.041.175.06.269.06h11.331c.357 0 .649-.29.649-.655V1.631l.006-1.62zM43.696 39.159c0-.136 0-.271-.006-.407-.005-.206-.017-.4-.035-.595l-.035-.3c0-.018-.006-.041-.006-.059-.011-.094-.029-.189-.04-.283-.007-.023-.007-.047-.012-.07-.018-.083-.03-.171-.047-.254-.006-.023-.006-.04-.012-.065l-.053-.247c-.006-.03-.011-.059-.023-.088-.018-.077-.041-.153-.059-.23 0-.006-.005-.012-.005-.023-.012-.036-.024-.077-.03-.112l-.052-.177c-.012-.035-.024-.077-.035-.112-.03-.083-.059-.17-.088-.253-.012-.03-.024-.06-.035-.095-.024-.064-.047-.123-.07-.188-.012-.035-.03-.07-.042-.106l-.087-.212c-.012-.03-.024-.053-.035-.083l-.106-.23c-.017-.029-.03-.064-.047-.094-.029-.064-.064-.13-.1-.194-.01-.024-.023-.047-.034-.07-.047-.083-.088-.166-.135-.254-.012-.023-.03-.047-.04-.076-.036-.065-.077-.13-.118-.195-.012-.023-.03-.047-.04-.07l-.159-.248c-.012-.018-.023-.03-.03-.047-.046-.07-.093-.136-.14-.206-.017-.024-.029-.047-.046-.065-.059-.083-.117-.159-.176-.242l-.187-.241c-.041-.053-.082-.1-.123-.153-.111-.142-.223-.277-.334-.412-.093-.112-.193-.23-.292-.342-.082-.1-.17-.195-.258-.295-.094-.106-.193-.218-.293-.324-.134-.153-.275-.3-.415-.447-.094-.1-.188-.2-.287-.3-.187-.2-.38-.395-.568-.59-.1-.1-.199-.206-.298-.306-.193-.2-.392-.4-.585-.6-.293-.301-.592-.608-.89-.926-.937-.99-2.318-2.397-3.857-3.946l-1.31-1.32c-.177-.176-.358-.353-.534-.536-.093-.088-.181-.182-.275-.276-.181-.177-.357-.36-.538-.536-3.254-3.246-6.502-6.444-7.433-7.357-.047-.047-.1-.089-.158-.124-.14-.088-.304-.136-.474-.136H5.642c-.117 0-.176.142-.094.224l1.188 1.214.293.3 6.479 6.639 12.958 13.27c.21.212.105.554-.146.642-.041.012-.082.024-.13.024H.645c-.217 0-.404.106-.521.27-.041.06-.07.119-.094.19-.006.017-.011.04-.017.064-.006.041-.012.089-.012.13V47.317c0 .023 0 .047.006.065.012.14.076.27.164.37.011.018.029.03.047.042.064.059.14.106.222.135.064.024.135.036.21.036h34.063c2.43 0 4.8-.937 6.48-2.71 1.913-2.014 2.487-4.223 2.504-6.096z"/>
</svg>
